STARTFONT 2.1
FONT BengaliMT16
SIZE 16 75 75
FONTBOUNDINGBOX 5 16 2 -3
STARTPROPERTIES 4
COPYRIGHT "Monotype"
PIXEL_SIZE 16
FONT_ASCENT 13
FONT_DESCENT 3
ENDPROPERTIES
CHARS 1
STARTCHAR 09FB
ENCODING 2555
SWIDTH 0 0
DWIDTH 9 0
BBX 5 16 2 -3
BITMAP
00
00
00
00
00
00
10
20
60
c0
60
30
10
08
00
00
ENDCHAR
STARTCHAR 09FD
ENCODING 2557
SWIDTH 0 0
DWIDTH 9 0
BBX 6 16 3 -3
BITMAP
00
00
00
00
00
00
10
20
60
c0
60
30
10
08
00
00
ENDCHAR
